<?xml version="1.0" encoding="iso-8859-1"?>
<!-- Generator: Adobe Illustrator 19.0.0, SVG Export Plug-In . SVG Version: 6.00 Build 0)  -->
<svg version="1.1" id="Capa_1" xmlns="http://www.w3.org/2000/svg" xmlns:xlink="http://www.w3.org/1999/xlink" x="0px" y="0px"
	 viewBox="0 0 512.002 512.002" style="enable-background:new 0 0 512.002 512.002;" xml:space="preserve">
<circle style="fill:#FFE17D;" cx="256" cy="272.03" r="232.47"/>
<path style="fill:#FFD164;" d="M289.746,470.755c-128.389,0-232.468-104.08-232.468-232.468c0-55.599,19.543-106.618,52.101-146.621
	c-52.372,42.625-85.847,107.576-85.847,180.366C23.532,400.42,127.611,504.5,256,504.5c72.79,0,137.742-33.476,180.367-85.848
	C396.365,451.211,345.345,470.755,289.746,470.755z"/>
<path style="fill:#A5CDFF;" d="M265.474,7.583c92.993,1.567,166.882,26.051,166.882,56.03c0,30.99-78.957,56.113-176.355,56.113
	S79.646,94.603,79.646,63.613c0-29.979,73.889-54.464,166.882-56.03C122.538,9.299,23.533,44.485,23.533,87.661
	c0,44.272,104.08,80.161,232.468,80.161s232.468-35.89,232.468-80.161C488.468,44.485,389.464,9.299,265.474,7.583z"/>
<path style="fill:#8CB4EB;" d="M432.356,63.613c0,30.99-78.957,56.113-176.355,56.113S79.646,94.603,79.646,63.613
	c0-29.979,73.889-54.464,166.882-56.03C168.121,8.668,99.743,23.146,60.036,44.556c-3.284,6.756-4.439,13.263-4.439,19.057
	c0,18.625,11.869,44.603,68.41,62.594c35.603,11.328,82.479,17.567,131.993,17.567s96.39-6.239,131.993-17.567
	c56.541-17.991,68.41-43.969,68.41-62.594c0-5.794-1.155-12.301-4.439-19.057c-39.706-21.41-108.083-35.888-186.49-36.973
	C358.467,9.149,432.356,33.634,432.356,63.613z"/>
<path d="M370.491,252.698c1.481,1.843,3.656,2.802,5.851,2.802c1.648,0,3.309-0.542,4.694-1.655
	c3.229-2.595,3.742-7.316,1.147-10.544c-9.621-11.97-23.439-18.834-37.912-18.834s-28.292,6.865-37.913,18.834
	c-2.595,3.229-2.082,7.949,1.147,10.544c3.228,2.595,7.95,2.081,10.544-1.147c6.759-8.409,16.316-13.232,26.221-13.232
	S363.732,244.289,370.491,252.698z"/>
<path d="M194.096,252.698c1.481,1.843,3.656,2.802,5.851,2.802c1.648,0,3.309-0.542,4.694-1.655
	c3.229-2.595,3.742-7.316,1.147-10.544c-9.621-11.97-23.439-18.834-37.912-18.834s-28.292,6.865-37.913,18.834
	c-2.595,3.229-2.082,7.949,1.147,10.544c3.228,2.595,7.95,2.081,10.544-1.147c6.759-8.409,16.316-13.232,26.221-13.232
	S187.337,244.289,194.096,252.698z"/>
<path d="M255.972,399.799c40.456,0,78.687-19.134,102.27-51.184c2.455-3.336,1.74-8.031-1.596-10.486
	c-3.335-2.454-8.03-1.74-10.486,1.596c-20.767,28.223-54.482,45.073-90.188,45.073c-35.705,0-69.42-16.85-90.188-45.073
	c-2.456-3.337-7.15-4.052-10.486-1.596c-3.336,2.455-4.051,7.15-1.596,10.486C177.285,380.665,215.517,399.799,255.972,399.799z"/>
<path d="M89.166,151.443c44.676,15.405,103.926,23.89,166.835,23.89s122.159-8.484,166.835-23.89
	c47.17-16.266,73.148-38.916,73.148-63.777s-25.978-47.511-73.148-63.777C378.159,8.484,318.909,0,256.001,0
	S133.842,8.484,89.166,23.89c-47.17,16.266-73.148,38.916-73.148,63.777c0,18.476,14.358,35.728,41.089,50.049
	c-28.582,42.283-43.053,93.359-40.831,144.691C18.62,336.561,39.495,388.836,75.055,429.6c1.483,1.7,3.563,2.57,5.655,2.57
	c1.749,0,3.506-0.608,4.927-1.848c3.122-2.723,3.444-7.46,0.722-10.582c-33.332-38.211-52.899-87.213-55.096-137.981
	c-2.115-48.863,11.888-97.479,39.498-137.457C76.482,146.796,82.612,149.183,89.166,151.443z M405.838,84.668
	c-87.425-70.079-212.337-70.108-299.736-0.036c-12.086-6.81-18.968-14.205-18.968-21.016c0-10.955,17.791-23.421,46.431-32.534
	C166.16,20.712,209.642,15,256.001,15s89.84,5.712,122.436,16.083c28.64,9.113,46.431,21.579,46.431,32.534
	C424.867,70.439,417.963,77.848,405.838,84.668z M390.596,91.825c-3.794,1.506-7.851,2.954-12.16,4.325
	C345.84,106.521,302.359,112.233,256,112.233s-89.84-5.712-122.436-16.083c-4.337-1.38-8.421-2.838-12.236-4.354
	C200.934,32.161,310.964,32.185,390.596,91.825z M31.018,87.667c0-15.665,17.999-31.619,49.893-44.657
	c-5.647,6.229-8.776,13.104-8.776,20.607c0,41.32,94.732,63.616,183.866,63.616s183.866-22.296,183.866-63.616
	c0-7.502-3.125-14.377-8.771-20.605c31.891,13.037,49.888,28.991,49.888,44.655c0,17.705-22.977,35.782-63.038,49.596
	c-43.144,14.877-100.657,23.07-161.945,23.07S137.2,152.14,94.056,137.263C53.994,123.448,31.018,105.371,31.018,87.667z"/>
<path d="M458.418,157.469c-3.667,1.925-5.081,6.458-3.156,10.126c21.811,41.558,30.11,90.159,23.37,136.848
	c-6.97,48.282-28.944,92.092-63.544,126.693c-40.576,40.575-94.489,63.926-151.809,65.75
	c-57.041,1.822-112.085-17.786-154.968-55.194c-3.121-2.723-7.858-2.4-10.582,0.722c-2.723,3.122-2.4,7.859,0.722,10.582
	c43.805,38.211,99.483,59.006,157.556,59.006c2.576,0,5.165-0.041,7.75-0.124c61.146-1.945,118.657-26.853,161.938-70.135
	c36.908-36.908,60.348-83.644,67.784-135.156c7.188-49.792-1.667-101.629-24.934-145.962
	C466.62,156.957,462.087,155.544,458.418,157.469z"/>
<g>
</g>
<g>
</g>
<g>
</g>
<g>
</g>
<g>
</g>
<g>
</g>
<g>
</g>
<g>
</g>
<g>
</g>
<g>
</g>
<g>
</g>
<g>
</g>
<g>
</g>
<g>
</g>
<g>
</g>
</svg>
