<?xml version="1.0" encoding="iso-8859-1"?>
<!-- Generator: Adobe Illustrator 19.0.0, SVG Export Plug-In . SVG Version: 6.00 Build 0)  -->
<svg version="1.1" id="Capa_1" xmlns="http://www.w3.org/2000/svg" xmlns:xlink="http://www.w3.org/1999/xlink" x="0px" y="0px"
	 viewBox="0 0 512.001 512.001" style="enable-background:new 0 0 512.001 512.001;" xml:space="preserve">
<circle style="fill:#E6646E;" cx="255.985" cy="256.045" r="248.514"/>
<path style="fill:#DC4655;" d="M292.06,468.483c-137.251,0-248.514-111.264-248.514-248.514c0-59.436,20.892-113.977,55.698-156.742
	C43.257,108.795,7.472,178.229,7.472,256.043c0,137.25,111.263,248.514,248.514,248.514c77.814,0,147.25-35.786,192.817-91.774
	C406.038,447.59,351.497,468.483,292.06,468.483z"/>
<path style="fill:#6E5A64;" d="M424.334,304.143H87.637c-8.855,0-16.033,7.178-16.033,16.033v112.232
	c0,8.855,7.178,16.033,16.033,16.033h336.697c8.854,0,16.033-7.178,16.033-16.033V320.176
	C440.367,311.321,433.189,304.143,424.334,304.143z"/>
<path style="fill:#5A4650;" d="M171.812,264.059L171.812,264.059c-11.069,0-20.041-8.973-20.041-20.041v-16.033
	c0-11.069,8.973-20.041,20.041-20.041l0,0c11.069,0,20.041,8.973,20.041,20.041v16.033
	C191.853,255.087,182.88,264.059,171.812,264.059z"/>
<path style="fill:#6E5A64;" d="M191.853,227.985c0-12.38-11.223-22.136-24.049-19.652v15.644c0,13.283,10.768,24.049,24.049,24.049
	l0,0V227.985z"/>
<path style="fill:#5A4650;" d="M340.16,264.059L340.16,264.059c-11.069,0-20.041-8.973-20.041-20.041v-16.033
	c0-11.069,8.973-20.041,20.041-20.041l0,0c11.069,0,20.041,8.973,20.041,20.041v16.033
	C360.202,255.087,351.228,264.059,340.16,264.059z"/>
<path style="fill:#6E5A64;" d="M360.202,227.985c0-12.38-11.223-22.136-24.049-19.652v15.644c0,13.283,10.768,24.049,24.049,24.049
	l0,0V227.985z"/>
<path d="M171.792,215.456c4.142,0,7.5-3.358,7.5-7.5c0-4.142-3.358-7.5-7.5-7.5c-15.188,0-27.544,12.356-27.544,27.543v16.034
	c0,15.188,12.356,27.543,27.544,27.543s27.544-12.356,27.544-27.543v-12.026c0-4.142-3.358-7.5-7.5-7.5c-4.142,0-7.5,3.358-7.5,7.5
	v12.026c0,6.916-5.626,12.542-12.543,12.542s-12.543-5.626-12.543-12.542v-16.034C159.25,221.082,164.877,215.456,171.792,215.456z"
	/>
<path d="M340.151,215.456c4.142,0,7.5-3.358,7.5-7.5c0-4.142-3.358-7.5-7.5-7.5c-15.188,0-27.544,12.356-27.544,27.543v16.034
	c0,15.188,12.356,27.543,27.544,27.543c15.188,0,27.544-12.356,27.544-27.543v-12.026c0-4.142-3.358-7.5-7.5-7.5
	c-4.142,0-7.5,3.358-7.5,7.5v12.026c0,6.916-5.626,12.542-12.543,12.542c-6.916,0-12.543-5.626-12.543-12.542v-16.034
	C327.608,221.082,333.234,215.456,340.151,215.456z"/>
<path d="M207.841,191.407c3.14,0,6.066-1.988,7.114-5.13c1.31-3.93-0.814-8.177-4.744-9.488l-72.153-24.051
	c-3.929-1.311-8.177,0.814-9.488,4.744s0.814,8.177,4.744,9.488l72.153,24.051C206.255,191.282,207.055,191.407,207.841,191.407z"/>
<path d="M383.314,157.481c-1.31-3.93-5.558-6.055-9.488-4.744l-72.153,24.051c-3.93,1.31-6.053,5.558-4.744,9.488
	c1.048,3.143,3.974,5.13,7.114,5.13c0.786,0,1.586-0.125,2.373-0.387l72.153-24.051C382.5,165.659,384.623,161.411,383.314,157.481z
	"/>
<path d="M180.331,338.245c-3.313-2.484-8.015-1.813-10.501,1.5l-48.103,64.137c-2.485,3.313-1.814,8.015,1.5,10.501
	c1.349,1.012,2.928,1.5,4.494,1.5c2.28,0,4.533-1.036,6.006-3l48.103-64.137C184.316,345.432,183.644,340.73,180.331,338.245z"/>
<path d="M215.915,391.831c4.142,0,7.5-3.358,7.5-7.5v-40.085c0-4.142-3.358-7.5-7.5-7.5c-4.142,0-7.5,3.358-7.5,7.5v40.085
	C208.414,388.472,211.772,391.831,215.915,391.831z"/>
<path d="M215.915,400.881c-4.142,0-7.5,3.358-7.5,7.5c0,4.142,3.358,7.5,7.5,7.5h0.081c4.142,0,7.46-3.358,7.46-7.5
	C223.456,404.239,220.057,400.881,215.915,400.881z"/>
<path d="M312.119,352.778H309.7l1.679-6.714c1.005-4.018-1.438-8.09-5.457-9.096c-4.012-1.003-8.09,1.438-9.096,5.457l-2.588,10.353
	h-16.606l1.679-6.714c1.005-4.018-1.438-8.09-5.457-9.096c-4.012-1.003-8.09,1.438-9.095,5.457l-2.588,10.353h-6.169
	c-4.142,0-7.5,3.358-7.5,7.5c0,4.142,3.358,7.5,7.5,7.5h2.419l-4.267,17.067h-6.169c-4.142,0-7.5,3.358-7.5,7.5s3.358,7.5,7.5,7.5
	h2.419l-1.679,6.714c-1.005,4.018,1.438,8.09,5.457,9.096c0.61,0.153,1.222,0.226,1.825,0.226c3.36,0,6.418-2.275,7.27-5.683
	l2.588-10.353h16.606l-1.679,6.714c-1.005,4.018,1.438,8.09,5.457,9.096c0.61,0.153,1.222,0.226,1.825,0.226
	c3.36,0,6.418-2.275,7.27-5.683l2.588-10.353h6.169c4.142,0,7.5-3.358,7.5-7.5s-3.358-7.5-7.5-7.5h-2.419l4.267-17.067h6.169
	c4.142,0,7.5-3.358,7.5-7.5C319.619,356.137,316.261,352.778,312.119,352.778z M286.221,384.847h-16.606l4.267-17.067h16.606
	L286.221,384.847z"/>
<path d="M397.593,379.027c-2.929-2.93-7.678-2.929-10.607,0l-6.722,6.722l-6.348-6.348c5.952-4.275,9.84-11.251,9.84-19.121
	c0-12.977-10.558-23.534-23.534-23.534s-23.534,10.558-23.534,23.534c0,2.612,0.434,5.122,1.223,7.472
	c-6.457,5.7-9.891,14.083-9.139,22.963c1.192,14.113,13.776,25.167,28.647,25.167c8.541,0,16.593-3.169,22.824-8.942l6.744,6.744
	c1.464,1.464,3.384,2.197,5.303,2.197c1.919,0,3.839-0.732,5.303-2.197c2.929-2.929,2.929-7.678,0-10.607l-6.722-6.722l6.722-6.722
	C400.523,386.704,400.523,381.956,397.593,379.027z M360.222,351.745c4.705,0,8.533,3.828,8.533,8.533
	c0,4.705-3.828,8.533-8.533,8.533c-4.705,0-8.533-3.828-8.533-8.533C351.688,355.574,355.516,351.745,360.222,351.745z
	 M357.418,400.881c-7.021,0-13.167-5.127-13.699-11.431c-0.309-3.656,0.929-7.126,3.328-9.681c2.885,1.956,6.226,3.286,9.827,3.801
	l12.74,12.74C366.225,399.257,361.95,400.881,357.418,400.881z"/>
<path d="M143.244,352.262c0-8.556-6.961-15.518-15.518-15.518s-15.518,6.961-15.518,15.518c0,8.556,6.961,15.518,15.518,15.518
	S143.244,360.818,143.244,352.262z"/>
<path d="M175.83,384.847c-8.556,0-15.518,6.961-15.518,15.518s6.961,15.518,15.518,15.518s15.518-6.961,15.518-15.518
	S184.386,384.847,175.83,384.847z"/>
<path d="M511.995,257.737c0.4-62.93-22.22-123.538-63.694-170.659c-2.736-3.109-7.476-3.411-10.586-0.675
	c-3.109,2.737-3.412,7.476-0.675,10.586c39.038,44.355,60.33,101.408,59.953,160.653c-0.333,52.442-17.645,102.933-49.102,144.251
	v-81.699c0-12.977-10.558-23.534-23.534-23.534H87.642c-12.977,0-23.534,10.558-23.534,23.534v112.238
	c0,12.977,10.558,23.534,23.534,23.534h8.424c46.56,37.33,103.238,56.006,159.933,56.006c56.688,0,113.378-18.68,159.933-56.006
	h8.425c12.977,0,23.534-10.558,23.534-23.534v-6.924C488.85,379.209,511.601,319.756,511.995,257.737z M121.333,455.967h269.333
	C309.617,510.646,202.384,510.647,121.333,455.967z M432.892,432.433c0,4.705-3.828,8.533-8.533,8.533H87.642
	c-4.705,0-8.533-3.828-8.533-8.533V320.194c0-4.705,3.828-8.533,8.533-8.533h336.716c4.705,0,8.533,3.828,8.533,8.533
	L432.892,432.433L432.892,432.433z"/>
<path d="M16.97,224.962c6.87-53.168,30.591-101.36,68.597-139.366C129.171,41.994,187.11,16.97,248.712,15.137
	c61.348-1.829,120.403,19.43,166.327,59.851c3.109,2.737,7.848,2.436,10.586-0.675c2.737-3.109,2.435-7.848-0.675-10.586
	C376.161,20.785,313.42-1.797,248.266,0.142C182.826,2.091,121.278,28.671,74.961,74.989C34.589,115.36,9.392,166.555,2.092,223.039
	c-7.068,54.705,3.904,111.132,30.899,158.888c1.379,2.44,3.92,3.811,6.536,3.811c1.25,0,2.518-0.313,3.684-0.972
	c3.606-2.039,4.877-6.614,2.839-10.221C20.642,329.595,10.314,276.471,16.97,224.962z"/>
<g>
</g>
<g>
</g>
<g>
</g>
<g>
</g>
<g>
</g>
<g>
</g>
<g>
</g>
<g>
</g>
<g>
</g>
<g>
</g>
<g>
</g>
<g>
</g>
<g>
</g>
<g>
</g>
<g>
</g>
</svg>
